<svg width="16" height="16" viewBox="0 0 16 16" fill="none" xmlns="http://www.w3.org/2000/svg">
<g clip-path="url(#clip0_7_61)">
<path d="M7.02415 0.0531425C4.36529 0.349959 1.71581 2.5011 1.60645 5.57394C1.53772 7.45013 2.07042 8.85767 3.85602 9.25291C4.63086 7.88599 3.60606 7.58448 3.44672 6.59561C2.79216 2.54328 8.12081 -0.220242 10.9093 2.60889C12.8386 4.56789 11.5686 10.5948 8.45668 9.96839C5.47601 9.37007 9.91577 4.57257 7.53655 3.63057C5.60255 2.86509 4.57463 5.9723 5.49163 7.51575C4.95424 10.1699 3.79665 12.671 4.26531 16C5.78533 14.8971 6.29773 12.785 6.71796 10.5823C7.48187 11.0463 7.88961 11.529 8.86442 11.604C12.459 11.8821 14.4665 8.01565 13.9759 4.44916C13.5401 1.28728 10.3844 -0.321784 7.02415 0.0531425Z" fill="white"/>
</g>
<defs>
<clipPath id="clip0_7_61">
<rect width="16" height="16" fill="white"/>
</clipPath>
</defs>
</svg>
