<svg width="16" height="16" viewBox="0 0 16 16" fill="none" xmlns="http://www.w3.org/2000/svg">
<g clip-path="url(#clip0_7_63)">
<path d="M8 16C12.4183 16 16 12.4183 16 8C16 3.58172 12.4183 0 8 0C3.58172 0 0 3.58172 0 8C0 12.4183 3.58172 16 8 16Z" fill="white"/>
<path d="M13.3361 8.00001C13.3377 8.10961 13.3241 8.21901 13.2953 8.32481C13.2665 8.43061 13.2229 8.53201 13.1657 8.62561C13.1087 8.71921 13.0387 8.80441 12.9579 8.87861C12.8771 8.95281 12.7863 9.01522 12.6881 9.06402C12.6903 9.09322 12.6921 9.12262 12.6931 9.15202C12.6955 9.21066 12.6955 9.26938 12.6931 9.32802C12.6921 9.35742 12.6903 9.38682 12.6881 9.41602C12.6881 11.208 10.6001 12.6641 8.02404 12.6641C5.44802 12.6641 3.36 11.208 3.36 9.41602C3.3578 9.38682 3.356 9.35742 3.355 9.32802C3.3526 9.26938 3.3526 9.21066 3.355 9.15202C3.356 9.12262 3.3578 9.09322 3.36 9.06402C3.20615 8.9933 3.06951 8.88999 2.95952 8.76125C2.84953 8.63251 2.76883 8.48141 2.723 8.31841C2.67724 8.15533 2.6675 7.98426 2.69443 7.81704C2.72137 7.64982 2.78435 7.49046 2.879 7.35C2.97357 7.20956 3.09756 7.09138 3.24237 7.00366C3.38718 6.91594 3.54934 6.86077 3.71761 6.84199C3.88589 6.82313 4.05627 6.84109 4.21692 6.89462C4.37758 6.94815 4.52467 7.03597 4.64801 7.152C4.87698 6.9968 5.11688 6.85837 5.36582 6.73779C5.61482 6.61739 5.87223 6.51499 6.13603 6.43179C6.39983 6.34859 6.66943 6.28479 6.94244 6.24059C7.21544 6.19639 7.49144 6.17219 7.76804 6.16799L8.36005 3.39196C8.36665 3.35976 8.37965 3.32936 8.39825 3.30216C8.41665 3.27516 8.44045 3.25196 8.46785 3.23416C8.49545 3.21636 8.52625 3.20416 8.55865 3.19816C8.59085 3.19236 8.62405 3.19296 8.65605 3.19996L10.6161 3.59196C10.8139 3.25216 11.2291 3.10656 11.5957 3.24816C11.9623 3.38976 12.1719 3.77676 12.0899 4.16117C12.0081 4.54557 11.6589 4.81357 11.2665 4.79337C10.8739 4.77317 10.5541 4.47077 10.5121 4.07997L8.80005 3.71996L8.28005 6.21599C8.55325 6.22179 8.82585 6.24739 9.09545 6.29239C9.63535 6.38238 10.1594 6.54984 10.6515 6.78959C10.8972 6.90919 11.134 7.04635 11.3601 7.2C11.5226 7.04396 11.7268 6.9383 11.9481 6.89579C12.1693 6.85313 12.3982 6.87543 12.6071 6.95999C12.816 7.04452 12.9959 7.18767 13.1253 7.3722C13.2547 7.55674 13.3279 7.77478 13.3361 8.00001ZM5.39682 9.10622C5.43722 9.20322 5.49602 9.29142 5.57042 9.36562C5.64462 9.44002 5.73282 9.49882 5.82983 9.53922C5.92692 9.57937 6.03096 9.60003 6.13603 9.60002C6.45963 9.60002 6.75123 9.40502 6.87523 9.10622C6.99904 8.80721 6.93043 8.46321 6.70163 8.23441C6.47283 8.00561 6.12883 7.937 5.82983 8.06081C5.53102 8.18481 5.33602 8.47641 5.33602 8.80001C5.33602 8.90501 5.35662 9.00902 5.39682 9.10622ZM9.97886 11.0266C10.0199 10.9866 10.0433 10.932 10.0441 10.8748C10.0449 10.8174 10.0227 10.7622 9.98266 10.7212C9.94266 10.6802 9.88806 10.6568 9.83086 10.656C9.77346 10.6552 9.71826 10.6774 9.67206 10.712C9.55176 10.7983 9.42437 10.8743 9.29126 10.939C9.15813 11.0038 9.01977 11.0573 8.87765 11.0988C8.73565 11.1402 8.59025 11.1696 8.44325 11.1866C8.29605 11.2036 8.14785 11.208 8.00004 11.2C7.85244 11.2066 7.70444 11.2006 7.55784 11.1822C7.4112 11.164 7.2664 11.1332 7.12504 11.0902C6.98344 11.0474 6.84603 10.9926 6.71383 10.9266C6.58163 10.8606 6.45523 10.7834 6.33603 10.696C6.29463 10.662 6.24203 10.6446 6.18843 10.6472C6.13483 10.6498 6.08423 10.6724 6.04623 10.7102C6.00843 10.7482 5.98583 10.7988 5.98323 10.8524C5.98063 10.906 5.99803 10.9586 6.03203 11C6.17263 11.106 6.32203 11.1996 6.47863 11.28C6.63523 11.3604 6.79863 11.427 6.96664 11.4794C7.13464 11.5318 7.30684 11.5696 7.48144 11.5926C7.65604 11.6154 7.83224 11.6232 8.00804 11.616C8.18385 11.6232 8.36005 11.6154 8.53465 11.5926C8.88436 11.5466 9.22356 11.4409 9.53746 11.28C9.69406 11.1996 9.84346 11.106 9.98406 11L9.97886 11.0266ZM9.83206 9.66402C9.94046 9.66522 10.0481 9.64422 10.1483 9.60262C10.2485 9.56082 10.3391 9.49922 10.4147 9.42142C10.4903 9.34362 10.5491 9.25122 10.5879 9.14982C10.6267 9.04853 10.6445 8.9404 10.6401 8.83201C10.6401 8.50841 10.4451 8.21681 10.1463 8.09281C9.84726 7.96901 9.50326 8.03761 9.27446 8.26641C9.04565 8.49521 8.97705 8.83921 9.10085 9.13822C9.22486 9.43702 9.51646 9.63202 9.84006 9.63202L9.83206 9.66402Z" fill="#1B6392"/>
</g>
<defs>
<clipPath id="clip0_7_63">
<rect width="16" height="16" fill="white"/>
</clipPath>
</defs>
</svg>
